<svg width="266" height="56" viewBox="0 0 266 56" fill="none" xmlns="http://www.w3.org/2000/svg" xmlns:xlink="http://www.w3.org/1999/xlink">
<path d="M260.038,8.313L207.786,18.032C207.418,18.1 207.114,17.709 207.114,17.266C207.116,17.149 207.138,17.034 207.178,16.924C208.282,14.211 206.834,10.946 204.464,10.787L149.435,7.428C148.37,7.365 147.306,7.567 146.34,8.016L145.923,8.246C141.739,10.506 138.504,14.96 137.033,20.496L136.614,22.111C136.387,23.092 136.001,24.03 135.471,24.889C135.27,25.186 134.998,25.429 134.68,25.598C134.362,25.767 134.007,25.856 133.646,25.857L132.976,25.857C132.611,25.855 132.253,25.764 131.933,25.591C131.613,25.419 131.341,25.171 131.14,24.869C130.62,24.007 130.239,23.07 130.011,22.092L129.591,20.477C128.121,14.941 124.886,10.481 120.701,8.226L120.281,7.997C119.317,7.548 118.254,7.345 117.19,7.409L62.154,10.797C59.782,10.946 58.324,14.211 59.427,16.934C59.478,17.046 59.505,17.169 59.505,17.292C59.505,17.731 59.199,18.109 58.832,18.041L6.585,8.313C5.875,8.184 5.8,6.925 6.471,6.631L10.353,5C11.909,4.332 13.578,3.96 15.273,3.905L133.304,0L251.348,3.905C253.044,3.963 254.712,4.334 256.268,5L260.152,6.631C260.822,6.925 260.734,8.184 260.038,8.313Z" fill="#FFFFFF"/>
<path d="M7.514,10.228L56.976,20.518C59.605,21.064 61.984,22.85 63.647,25.528L64.525,26.942C67.327,31.464 72.01,33.26 76.273,31.464L103.955,19.514C104.999,19.029 105.65,19.895 104.524,20.583L57.497,47.713C53.432,50.122 48.678,49.554 45.024,46.221L7.075,11.627C6.544,11.158 6.883,10.089 7.514,10.228Z" fill="#FFFFFF"/>
<path d="M259.101,10.228L209.639,20.518C207.01,21.064 204.631,22.85 202.968,25.528L202.09,26.942C199.288,31.464 194.606,33.26 190.343,31.464L162.66,19.514C161.616,19.029 160.965,19.895 162.088,20.583L209.119,47.713C213.183,50.122 217.937,49.554 221.591,46.221L259.54,11.627C260.071,11.158 259.732,10.089 259.101,10.228Z" fill="#FFFFFF"/>
</svg>
