<svg width="70" height="62" viewBox="0 0 70 62" fill="none" xmlns="http://www.w3.org/2000/svg" xmlns:xlink="http://www.w3.org/1999/xlink">
<path d="M16.345,61.762C14.585,61.698 12.913,61.243 11.328,60.395C9.743,59.547 8.246,58.307 6.835,56.676C4.525,54.052 2.725,50.824 1.435,46.993C0.145,43.162 -0.5,39.182 -0.5,35.055C-0.5,30.243 0.396,25.726 2.187,21.505C3.979,17.284 6.44,13.608 9.57,10.477C12.701,7.347 16.364,4.873 20.561,3.057C24.758,1.241 29.238,0.333 34,0.333C38.762,0.333 43.242,1.245 47.439,3.068C51.636,4.892 55.287,7.364 58.393,10.484C61.499,13.605 63.96,17.271 65.776,21.483C67.592,25.695 68.5,30.197 68.5,34.988C68.5,39.121 67.837,43.095 66.51,46.908C65.183,50.722 63.344,54 60.995,56.743C59.502,58.433 57.973,59.692 56.411,60.52C54.847,61.348 53.191,61.762 51.442,61.762C50.538,61.762 49.658,61.655 48.802,61.441C47.948,61.228 47.092,60.908 46.237,60.48L40.87,57.797C39.809,57.266 38.688,56.868 37.506,56.602C36.324,56.337 35.131,56.204 33.926,56.204C32.673,56.204 31.468,56.337 30.31,56.602C29.153,56.868 28.068,57.266 27.056,57.797L21.763,60.48C20.844,60.971 19.953,61.324 19.09,61.537C18.228,61.751 17.313,61.826 16.345,61.762ZM16.462,57.929C17.038,57.929 17.628,57.865 18.235,57.737C18.842,57.61 19.433,57.386 20.008,57.067L25.375,54.383C26.717,53.68 28.106,53.169 29.544,52.85C30.981,52.53 32.435,52.371 33.904,52.371C35.374,52.371 36.843,52.53 38.312,52.85C39.782,53.169 41.188,53.68 42.529,54.383L47.992,57.067C48.567,57.386 49.142,57.61 49.717,57.737C50.292,57.865 50.867,57.929 51.442,57.929C52.656,57.929 53.818,57.61 54.928,56.971C56.039,56.332 57.138,55.373 58.224,54.096C60.268,51.668 61.853,48.761 62.978,45.375C64.104,41.989 64.667,38.482 64.667,34.855C64.667,26.294 61.696,19.039 55.754,13.091C49.812,7.141 42.561,4.167 34,4.167C25.439,4.167 18.188,7.169 12.246,13.175C6.304,19.18 3.333,26.464 3.333,35.025C3.333,38.667 3.936,42.212 5.143,45.662C6.35,49.112 7.983,52.019 10.042,54.383C11.128,55.661 12.182,56.571 13.204,57.114C14.226,57.658 15.313,57.929 16.462,57.929ZM34,40.583C35.617,40.583 36.979,40.029 38.087,38.92C39.196,37.813 39.75,36.45 39.75,34.833C39.75,34.273 39.665,33.725 39.496,33.19C39.326,32.654 39.096,32.155 38.806,31.693L45.883,22.544C46.817,23.424 47.635,24.426 48.335,25.549C49.035,26.671 49.619,27.874 50.086,29.157L54.111,29.157C52.857,24.567 50.376,20.851 46.668,18.011C42.96,15.17 38.737,13.75 34,13.75C29.263,13.75 25.024,15.174 21.284,18.022C17.544,20.87 15.054,24.581 13.816,29.157L17.768,29.157C19.006,25.658 21.122,22.854 24.115,20.746C27.107,18.637 30.402,17.583 34,17.583C35.627,17.583 37.177,17.814 38.652,18.276C40.126,18.738 41.532,19.382 42.868,20.207L35.769,29.4C35.494,29.302 35.199,29.224 34.885,29.168C34.57,29.111 34.275,29.083 34,29.083C32.383,29.083 31.021,29.637 29.913,30.746C28.804,31.854 28.25,33.216 28.25,34.833C28.25,36.45 28.804,37.813 29.913,38.92C31.021,40.029 32.383,40.583 34,40.583Z" fill="#E8EAED"/>
</svg>
