<svg width="60" height="60" viewBox="0 0 60 60" fill="none" xmlns="http://www.w3.org/2000/svg" xmlns:xlink="http://www.w3.org/1999/xlink">
<path d="M49.961,19.077C47.438,19.077 45.246,18.265 43.387,16.642C41.528,15.019 40.421,12.985 40.067,10.539L19.858,10.539C19.538,12.715 18.616,14.576 17.091,16.12C15.566,17.664 13.715,18.596 11.539,18.916L11.539,39.067C13.985,39.421 16.019,40.528 17.642,42.387C19.265,44.246 20.077,46.438 20.077,48.961C20.077,51.761 19.104,54.134 17.158,56.081C15.212,58.027 12.839,59 10.039,59C7.239,59 4.865,58.027 2.919,56.081C0.973,54.134 0,51.761 0,48.961C0,46.438 0.811,44.246 2.435,42.387C4.057,40.528 6.092,39.421 8.539,39.067L8.539,18.916C6.092,18.561 4.057,17.459 2.435,15.609C0.811,13.76 0,11.569 0,9.039C0,6.239 0.977,3.865 2.932,1.919C4.886,-0.027 7.236,-1 9.981,-1C12.511,-1 14.702,-0.188 16.552,1.435C18.402,3.057 19.504,5.092 19.858,7.539L40.067,7.539C40.421,5.092 41.528,3.057 43.387,1.435C45.246,-0.188 47.438,-1 49.961,-1C52.722,-1 55.085,-0.017 57.051,1.949C59.017,3.914 60,6.278 60,9.039C60,11.839 59.017,14.212 57.051,16.158C55.085,18.104 52.722,19.077 49.961,19.077ZM10.002,56.058C11.984,56.058 13.659,55.361 15.026,53.969C16.393,52.577 17.077,50.92 17.077,48.998C17.077,47.016 16.393,45.341 15.026,43.974C13.659,42.607 11.984,41.923 10.002,41.923C8.08,41.923 6.423,42.607 5.031,43.974C3.639,45.341 2.942,47.016 2.942,48.998C2.942,50.92 3.639,52.577 5.031,53.969C6.423,55.361 8.08,56.058 10.002,56.058ZM10.002,16.135C11.984,16.135 13.659,15.439 15.026,14.048C16.393,12.657 17.077,10.985 17.077,9.032C17.077,7.078 16.393,5.418 15.026,4.051C13.659,2.684 11.984,2 10.002,2C8.08,2 6.423,2.684 5.031,4.051C3.639,5.418 2.942,7.078 2.942,9.032C2.942,10.985 3.639,12.657 5.031,14.048C6.423,15.439 8.08,16.135 10.002,16.135ZM49.961,59C47.161,59 44.788,58.027 42.842,56.081C40.896,54.134 39.923,51.775 39.923,49.003C39.923,46.231 40.896,43.858 42.842,41.884C44.788,39.91 47.161,38.923 49.961,38.923C52.761,38.923 55.134,39.91 57.081,41.884C59.027,43.858 60,46.231 60,49.003C60,51.775 59.027,54.134 57.081,56.081C55.134,58.027 52.761,59 49.961,59ZM49.968,56.058C51.921,56.058 53.582,55.361 54.949,53.969C56.316,52.577 57,50.92 57,48.998C57,47.016 56.316,45.341 54.949,43.974C53.582,42.607 51.921,41.923 49.968,41.923C48.015,41.923 46.343,42.607 44.952,43.974C43.561,45.341 42.865,47.016 42.865,48.998C42.865,50.92 43.561,52.577 44.952,53.969C46.343,55.361 48.015,56.058 49.968,56.058ZM49.968,16.135C51.921,16.135 53.582,15.439 54.949,14.048C56.316,12.657 57,10.985 57,9.032C57,7.078 56.316,5.418 54.949,4.051C53.582,2.684 51.921,2 49.968,2C48.015,2 46.343,2.684 44.952,4.051C43.561,5.418 42.865,7.078 42.865,9.032C42.865,10.985 43.561,12.657 44.952,14.048C46.343,15.439 48.015,16.135 49.968,16.135Z" fill="#E8EAED"/>
</svg>
