<svg width="40" height="42" viewBox="0 0 40 42" fill="none" xmlns="http://www.w3.org/2000/svg" xmlns:xlink="http://www.w3.org/1999/xlink">
<path d="M40,20.608C40,9.494 31.046,0.486 20,0.486C8.954,0.486 0,9.494 0,20.606C0,30.652 7.314,38.976 16.876,40.486L16.876,26.426L11.796,26.426L11.796,20.606L16.876,20.606L16.876,16.174C16.876,11.132 19.86,8.346 24.43,8.346C26.618,8.346 28.906,8.738 28.906,8.738L28.906,13.69L26.386,13.69C23.9,13.69 23.126,15.242 23.126,16.834L23.126,20.608L28.672,20.608L27.786,26.424L23.126,26.424L23.126,40.484C32.686,38.976 40,30.652 40,20.608Z" fill="#FFFFFF"/>
</svg>
