<svg width="58" height="58" viewBox="0 0 58 58" fill="none" xmlns="http://www.w3.org/2000/svg" xmlns:xlink="http://www.w3.org/1999/xlink">
<path d="M7.352,49.442C4.822,46.887 2.852,43.965 1.444,40.677C0.036,37.388 -0.668,33.987 -0.668,30.475C-0.668,26.941 0.013,23.419 1.374,19.908C2.736,16.396 4.92,13.137 7.927,10.129C10.36,7.696 13.443,5.768 17.175,4.342C20.908,2.917 24.965,1.876 29.346,1.22C33.728,0.564 38.269,0.201 42.97,0.132C47.67,0.064 52.198,0.177 56.552,0.472C56.867,4.688 56.989,9.136 56.92,13.814C56.852,18.493 56.472,23.03 55.782,27.427C55.091,31.823 54.037,35.902 52.619,39.664C51.201,43.426 49.293,46.506 46.895,48.905C43.951,51.897 40.775,54.078 37.366,55.447C33.959,56.816 30.538,57.5 27.105,57.5C23.505,57.5 19.946,56.796 16.427,55.388C12.908,53.98 9.884,51.998 7.352,49.442ZM13.811,49.716C15.81,51.048 17.981,52.039 20.323,52.69C22.665,53.341 24.932,53.667 27.124,53.667C30.096,53.667 33.036,53.088 35.943,51.93C38.851,50.773 41.59,48.86 44.16,46.192C45.301,45.042 46.458,43.429 47.63,41.352C48.802,39.276 49.816,36.56 50.672,33.206C51.527,29.852 52.177,25.795 52.621,21.035C53.064,16.276 53.176,10.606 52.955,4.025C49.824,3.897 46.27,3.874 42.291,3.955C38.313,4.036 34.338,4.376 30.368,4.976C26.396,5.576 22.666,6.49 19.177,7.719C15.688,8.947 12.899,10.606 10.81,12.694C7.984,15.52 6.004,18.449 4.868,21.481C3.733,24.514 3.165,27.34 3.165,29.959C3.165,33.434 3.86,36.678 5.248,39.693C6.636,42.708 8.316,45.061 10.287,46.752C11.888,42.231 14.365,37.893 17.718,33.737C21.069,29.582 25.758,25.708 31.783,22.116C27.379,25.944 23.677,30.017 20.677,34.334C17.677,38.652 15.388,43.779 13.811,49.716Z" fill="#E8EAED"/>
</svg>
