<svg width="70" height="70" viewBox="0 0 70 70" fill="none" xmlns="http://www.w3.org/2000/svg" xmlns:xlink="http://www.w3.org/1999/xlink">
<path d="M34.012,69.5C29.242,69.5 24.757,68.595 20.556,66.784C16.357,64.973 12.704,62.516 9.597,59.413C6.49,56.309 4.031,52.659 2.219,48.463C0.406,44.267 -0.5,39.784 -0.5,35.012C-0.5,30.242 0.405,25.757 2.216,21.556C4.027,17.357 6.484,13.704 9.587,10.597C12.691,7.49 16.341,5.031 20.537,3.219C24.733,1.406 29.216,0.5 33.988,0.5C38.758,0.5 43.243,1.405 47.444,3.216C51.643,5.027 55.296,7.484 58.403,10.587C61.51,13.691 63.969,17.341 65.781,21.537C67.594,25.733 68.5,30.216 68.5,34.988C68.5,39.758 67.595,44.243 65.784,48.444C63.973,52.643 61.516,56.296 58.413,59.403C55.309,62.51 51.659,64.969 47.463,66.781C43.267,68.594 38.784,69.5 34.012,69.5ZM30.167,65.475L30.167,58C28.058,58 26.253,57.249 24.752,55.748C23.251,54.247 22.5,52.442 22.5,50.333L22.5,46.5L4.1,28.1C3.908,29.25 3.733,30.4 3.573,31.55C3.413,32.7 3.333,33.85 3.333,35C3.333,42.731 5.873,49.503 10.952,55.317C16.031,61.131 22.436,64.517 30.167,65.475ZM56.617,55.7C57.894,54.294 59.044,52.777 60.067,51.148C61.089,49.519 61.935,47.826 62.606,46.069C63.277,44.312 63.788,42.507 64.14,40.654C64.491,38.801 64.667,36.917 64.667,35C64.667,28.702 62.938,22.95 59.48,17.744C56.023,12.539 51.363,8.786 45.5,6.486L45.5,8.167C45.5,10.275 44.749,12.08 43.248,13.581C41.747,15.083 39.942,15.833 37.833,15.833L30.167,15.833L30.167,23.5C30.167,24.586 29.799,25.497 29.065,26.231C28.33,26.966 27.419,27.333 26.333,27.333L18.667,27.333L18.667,35L41.667,35C42.753,35 43.663,35.367 44.398,36.102C45.133,36.837 45.5,37.747 45.5,38.833L45.5,50.333L49.333,50.333C50.994,50.333 52.496,50.828 53.837,51.819C55.179,52.809 56.106,54.103 56.617,55.7Z" fill="#E8EAED"/>
</svg>
