<svg width="36" height="38" viewBox="0 0 36 38" fill="none" xmlns="http://www.w3.org/2000/svg" xmlns:xlink="http://www.w3.org/1999/xlink">
<path d="M26,0.486L10,0.486C7.348,0.486 4.804,1.54 2.929,3.415C1.054,5.29 0,7.834 0,10.486L0,26.486C0,29.138 1.054,31.682 2.929,33.557C4.804,35.432 7.348,36.486 10,36.486L26,36.486C28.652,36.486 31.196,35.432 33.071,33.557C34.946,31.682 36,29.138 36,26.486L36,10.486C36,7.834 34.946,5.29 33.071,3.415C31.196,1.54 28.652,0.486 26,0.486ZM32.5,26.486C32.495,28.208 31.808,29.859 30.59,31.076C29.373,32.294 27.722,32.981 26,32.986L10,32.986C8.278,32.981 6.627,32.294 5.41,31.076C4.192,29.859 3.505,28.208 3.5,26.486L3.5,10.486C3.505,8.764 4.192,7.114 5.41,5.896C6.627,4.678 8.278,3.991 10,3.986L26,3.986C27.722,3.991 29.373,4.678 30.59,5.896C31.808,7.114 32.495,8.764 32.5,10.486L32.5,26.486ZM27.5,10.986C28.03,10.986 28.539,10.775 28.914,10.4C29.289,10.025 29.5,9.517 29.5,8.986C29.5,8.456 29.289,7.947 28.914,7.572C28.539,7.197 28.03,6.986 27.5,6.986C26.97,6.986 26.461,7.197 26.086,7.572C25.711,7.947 25.5,8.456 25.5,8.986C25.5,9.517 25.711,10.025 26.086,10.4C26.461,10.775 26.97,10.986 27.5,10.986ZM18,9.486C16.22,9.486 14.48,10.014 13,11.003C11.52,11.992 10.366,13.397 9.685,15.042C9.004,16.686 8.826,18.496 9.173,20.242C9.52,21.988 10.377,23.591 11.636,24.85C12.895,26.109 14.498,26.966 16.244,27.313C17.99,27.66 19.8,27.482 21.444,26.801C23.089,26.12 24.494,24.966 25.483,23.486C26.472,22.006 27,20.266 27,18.486C27.003,17.303 26.772,16.132 26.32,15.039C25.869,13.946 25.206,12.953 24.37,12.116C23.534,11.28 22.54,10.617 21.447,10.166C20.354,9.714 19.183,9.483 18,9.486ZM12.5,18.486C12.5,19.945 13.079,21.344 14.111,22.375C15.142,23.407 16.541,23.986 18,23.986C19.459,23.986 20.858,23.407 21.889,22.375C22.921,21.344 23.5,19.945 23.5,18.486C23.5,17.027 22.921,15.628 21.889,14.597C20.858,13.566 19.459,12.986 18,12.986C16.541,12.986 15.142,13.566 14.111,14.597C13.079,15.628 12.5,17.027 12.5,18.486Z" clip-rule="evenodd" fill-rule="evenodd" fill="#FFFFFF"/>
</svg>
