<svg width="2894" height="160" viewBox="0 0 2894 160" fill="none" xmlns="http://www.w3.org/2000/svg" xmlns:xlink="http://www.w3.org/1999/xlink">
<g style="isolation:isolate">
<path d="M64.634,158.936L0,158.936L49.692,31.204L111.967,31.204L64.634,158.936ZM311.966,31.204L264.828,158.936L200.392,158.936L229.636,84.05L168.393,158.936L111.967,158.936L97.222,89.597L119.143,31.056L126.713,31.056L146.914,120.8L219.756,31.254L311.966,31.204Z" fill="#FFFFFF"/>
<path d="M412.222,110.897L403.816,133.63L524.632,133.63L514.802,159.087L329.942,159.087L367.2,63.796L429.474,63.796L421.512,85.241L529.646,85.241L519.814,110.897L412.222,110.897ZM563.56,31.355L553.73,57.01L369.706,57.01L379.536,31.355L563.56,31.355Z" fill="#FFFFFF"/>
<path d="M762.178,108.223L809.56,158.939L742.616,158.939L696.906,108.223L665.35,108.223L646.23,158.939L581.792,158.939L618.214,64.093L682.602,64.093L675.23,82.765L761.786,82.765L771.616,57.506L620.72,57.506L630.206,32.297L845.982,32.297L816.492,108.025L762.178,108.223Z" fill="#FFFFFF"/>
<path d="M1036.728,119.019L1103.87,111.194L1085.978,158.938L870.202,158.938L906.82,63.647L971.062,63.647L944.322,133.481L1031.272,133.481L1036.728,119.019ZM919.256,31.207L1133.852,31.207L1119.548,69.392L1051.376,79.298L1059.976,56.763L909.376,56.763L919.256,31.207Z" fill="#FFFFFF"/>
<path d="M1551.352,0.05L1492.862,158.934L1428.67,158.934L1480.426,25.21L1454.13,0L1551.352,0.05ZM1510.754,133.477L1622.72,133.477L1612.89,158.934L1501.316,158.934L1510.754,133.477Z" fill="#FFDD33"/>
<path d="M1829.818,0.05L1771.278,158.934L1707.086,158.934L1758.892,25.21L1732.546,0L1829.818,0.05ZM1789.168,133.477L1901.186,133.477L1891.354,158.934L1779.78,158.934L1789.168,133.477Z" fill="#FFDD33"/>
<path d="M2048.34,109.37L2040.02,131.955L2160.9,131.955L2151.06,157.412L1966.004,157.412L2003.26,62.121L2065.58,62.121L2057.58,83.566L2165.7,83.566L2155.88,109.222L2048.34,109.37ZM2199.68,29.829L2189.84,55.484L2005.62,55.484L2015.46,29.829L2199.68,29.829Z" fill="#FFFFFF"/>
<path d="M1244.252,110.897L1235.848,133.63L1356.662,133.63L1346.832,159.087L1161.972,159.087L1199.23,63.796L1261.554,63.796L1253.542,85.241L1361.676,85.241L1351.844,110.897L1244.252,110.897ZM1395.638,31.355L1385.808,57.01L1201.736,57.01L1211.566,31.355L1395.638,31.355Z" fill="#FFFFFF"/>
<path d="M2297.32,158.936L2232.7,158.936L2282.38,31.205L2344.76,31.205L2297.32,158.936ZM2418.48,31.205L2480.36,31.205L2433.22,158.936L2357.74,158.936L2330.6,86.131L2351.44,31.155L2355.22,31.155L2386.78,113.024L2418.48,31.205Z" fill="#FFFFFF"/>
<path d="M2614.62,37.984L2566.22,159.087L2501.58,159.087L2552.74,31.355L2614.62,37.984Z" fill="#FFFFFF"/>
<path d="M2742.66,110.897L2734.26,133.63L2855.08,133.63L2845.24,159.087L2660.34,159.087L2697.58,63.796L2759.92,63.796L2751.9,85.241L2860.04,85.241L2850.2,110.897L2742.66,110.897ZM2894,31.355L2884.16,57.01L2700.14,57.01L2709.98,31.355L2894,31.355Z" fill="#FFFFFF"/>
</g>
</svg>
