<svg width="36" height="38" viewBox="0 0 36 38" fill="none" xmlns="http://www.w3.org/2000/svg" xmlns:xlink="http://www.w3.org/1999/xlink">
<path d="M3,0.486C2.204,0.486 1.441,0.802 0.879,1.365C0.316,1.927 0,2.69 0,3.486L0,33.486C0,34.282 0.316,35.045 0.879,35.607C1.441,36.17 2.204,36.486 3,36.486L33,36.486C33.796,36.486 34.559,36.17 35.121,35.607C35.684,35.045 36,34.282 36,33.486L36,3.486C36,2.69 35.684,1.927 35.121,1.365C34.559,0.802 33.796,0.486 33,0.486L3,0.486ZM11.04,8.49C11.052,10.404 9.62,11.582 7.922,11.574C7.522,11.572 7.127,11.491 6.76,11.334C6.392,11.178 6.059,10.949 5.781,10.662C5.503,10.375 5.285,10.036 5.14,9.663C4.995,9.291 4.925,8.894 4.936,8.494C4.933,8.092 5.01,7.693 5.165,7.322C5.319,6.95 5.547,6.614 5.835,6.333C6.123,6.052 6.464,5.832 6.839,5.686C7.214,5.54 7.614,5.471 8.016,5.484C9.776,5.524 11.05,6.814 11.04,8.49ZM18.562,14.01L13.516,14.01L13.516,31.13L18.844,31.13L18.844,28.45C18.837,26.421 18.839,24.392 18.85,22.364C18.852,21.872 18.874,21.36 19,20.89C19.476,19.136 21.054,18.002 22.814,18.282C23.946,18.458 24.694,19.114 25.008,20.18C25.202,20.846 25.288,21.564 25.298,22.258C25.322,24.354 25.318,26.448 25.314,28.544L25.314,31.124L30.656,31.124L30.656,28.004C30.652,25.744 30.653,23.484 30.658,21.224C30.667,20.208 30.548,19.196 30.302,18.21C29.928,16.742 29.154,15.528 27.896,14.65C27.006,14.026 26.026,13.624 24.932,13.578L24.556,13.558C23.996,13.53 23.428,13.498 22.894,13.606C21.364,13.914 20.02,14.614 19.004,15.848C18.884,15.988 18.77,16.134 18.598,16.348L18.558,16.396L18.562,14.01ZM5.366,31.134L10.666,31.134L10.666,14.02L5.366,14.02L5.366,31.134Z" clip-rule="evenodd" fill-rule="evenodd" fill="#FFFFFF"/>
</svg>
