<svg width="78" height="72" viewBox="0 0 78 72" fill="none" xmlns="http://www.w3.org/2000/svg" xmlns:xlink="http://www.w3.org/1999/xlink">
<path d="M14.668,50C10.416,50 6.853,48.563 3.979,45.689C1.105,42.815 -0.332,39.252 -0.332,35C-0.332,30.833 1.133,27.27 4.062,24.311C6.992,21.351 10.527,19.872 14.668,19.872C18.476,19.872 21.806,21.16 24.658,23.737C27.511,26.314 29.155,29.513 29.591,33.333L35.475,33.333L28.322,13.333L23.001,13.333L23.001,10L36.335,10L36.335,13.333L31.899,13.333L34.22,19.872L53.937,19.872L48.335,4.488C48.206,4.102 47.993,3.814 47.694,3.622C47.394,3.429 47.052,3.333 46.668,3.333L39.668,3.333L39.668,0L46.668,0C47.728,0 48.699,0.293 49.581,0.878C50.464,1.464 51.091,2.274 51.463,3.307L57.514,19.833L61.335,19.833C65.476,19.833 69.011,21.298 71.94,24.227C74.87,27.157 76.335,30.692 76.335,34.833C76.335,38.987 74.873,42.532 71.95,45.468C69.027,48.404 65.489,49.872 61.335,49.872C57.506,49.872 54.195,48.611 51.402,46.09C48.609,43.568 46.946,40.427 46.411,36.667L29.591,36.667C29.155,40.5 27.49,43.681 24.597,46.208C21.704,48.736 18.395,50 14.668,50ZM14.668,46.667C17.459,46.667 19.919,45.785 22.05,44.023C24.18,42.26 25.557,39.808 26.18,36.667L16.335,36.667L16.335,33.333L26.18,33.333C25.557,30.179 24.18,27.724 22.05,25.968C19.919,24.212 17.459,23.333 14.668,23.333C11.365,23.333 8.594,24.452 6.357,26.689C4.12,28.926 3.001,31.697 3.001,35C3.001,38.205 4.12,40.951 6.357,43.237C8.594,45.524 11.365,46.667 14.668,46.667ZM39.18,33.333L46.411,33.333C46.604,31.799 47.171,29.996 48.114,27.923C49.056,25.851 50.429,24.278 52.232,23.205L35.399,23.205L39.18,33.333ZM61.335,46.667C64.638,46.667 67.408,45.524 69.645,43.237C71.883,40.951 73.001,38.205 73.001,35C73.001,31.697 71.883,28.926 69.645,26.689C67.408,24.452 64.638,23.333 61.335,23.333C60.839,23.333 60.377,23.344 59.95,23.365C59.522,23.387 59.104,23.462 58.694,23.59L62.155,32.808L59.027,33.988L55.732,24.769C53.809,25.842 52.317,27.316 51.258,29.193C50.198,31.069 49.668,33.004 49.668,35C49.668,38.205 50.787,40.951 53.024,43.237C55.261,45.524 58.031,46.667 61.335,46.667ZM40.822,70.513L23.77,61.923L35.053,61.923L35.053,56.154L52.104,64.743L40.822,64.743L40.822,70.513Z" fill="#E8EAED"/>
</svg>
